<svg width="556" height="556" viewBox="0 0 556 556" fill="none" xmlns="http://www.w3.org/2000/svg">
<path d="M273.294 46.234C401.675 46.234 505.748 150.307 505.748 278.688V368.093C505.748 447.097 441.703 511.142 362.699 511.142H194.617C115.614 511.142 51.5684 447.097 51.5684 368.093V189.283C51.5684 110.279 115.614 46.234 194.617 46.234H273.294ZM193.841 85.1256C135.823 85.1256 88.7891 132.159 88.7891 190.177V367.2C88.7892 425.218 135.823 472.252 193.841 472.252H362.583C421.094 472.251 468.528 424.818 468.528 366.306V278.688C468.528 171.787 381.867 85.1261 274.966 85.1256H193.841ZM274.847 152.179C291.453 154.849 304.139 169.242 304.139 186.601C304.138 197.835 298.823 207.826 290.573 214.203L226.155 278.622C211.973 292.805 211.973 315.799 226.155 329.982C240.338 344.165 263.334 344.165 277.517 329.982L348.873 258.625C349.788 257.571 350.777 256.583 351.832 255.666L352.597 254.902L352.694 254.944C357.856 250.786 364.453 248.291 371.641 248.291C387.05 248.291 399.739 259.756 401.402 274.499C401.448 275.89 401.474 277.286 401.474 278.688V366.306C401.473 387.785 384.062 405.196 362.583 405.197H193.841C172.856 405.197 155.843 388.185 155.843 367.2V190.177C155.843 169.192 172.855 152.179 193.841 152.179H274.847Z" fill="#01D924"/>
</svg>
