<svg width="2479" height="526" viewBox="0 0 2479 526" fill="none" xmlns="http://www.w3.org/2000/svg">
<path d="M245.612 55.551C360.989 55.551 454.522 149.083 454.522 264.46V344.81C454.522 415.811 396.964 473.369 325.962 473.369H174.905C103.903 473.369 46.3452 415.811 46.3452 344.81V184.111C46.3452 113.109 103.903 55.551 174.905 55.551H245.612ZM174.207 90.5031C122.065 90.5033 79.7954 132.773 79.7954 184.914V344.006C79.7955 396.148 122.065 438.417 174.207 438.417H325.857C378.442 438.417 421.071 395.788 421.071 343.202V264.46C421.071 168.386 343.188 90.5031 247.114 90.5031H174.207ZM247.016 150.766C261.936 153.169 273.332 166.102 273.333 181.699C273.332 191.796 268.556 200.775 261.141 206.506L203.249 264.4C190.502 277.146 190.502 297.812 203.249 310.559C215.995 323.305 236.661 323.305 249.408 310.559L313.531 246.434C314.356 245.483 315.249 244.59 316.202 243.763L316.882 243.083L316.968 243.12C321.607 239.383 327.536 237.141 333.997 237.141C347.847 237.141 359.25 247.446 360.745 260.696C360.785 261.946 360.809 263.201 360.809 264.46V343.202C360.809 362.506 345.16 378.154 325.857 378.154H174.207C155.347 378.154 140.057 362.866 140.057 344.006V184.914C140.057 166.055 155.347 150.766 174.207 150.766H247.016Z" fill="#01D924"/>
<path d="M2345.79 406.66C2327.35 406.66 2310.76 402.182 2296.01 393.227C2281.52 384.271 2270.06 372.023 2261.63 356.482C2253.2 340.678 2248.99 323.03 2248.99 303.538C2248.99 283.783 2253.2 266.267 2261.63 250.99C2270.06 235.449 2281.52 223.332 2296.01 214.64C2310.76 205.684 2327.35 201.207 2345.79 201.207C2360.54 201.207 2373.32 203.972 2384.12 209.504C2395.18 215.035 2404 222.674 2410.59 232.42V117.445H2461.95V401.919H2410.59V373.867C2404.53 382.559 2396.23 390.198 2385.7 396.783C2375.42 403.368 2362.12 406.66 2345.79 406.66ZM2356.85 362.014C2367.65 362.014 2377.14 359.511 2385.3 354.507C2393.73 349.502 2400.18 342.653 2404.66 333.961C2409.4 325.006 2411.77 314.996 2411.77 303.933C2411.77 292.607 2409.4 282.598 2404.66 273.906C2400.18 265.213 2393.73 258.365 2385.3 253.36C2377.14 248.356 2367.65 245.853 2356.85 245.853C2346.32 245.853 2336.83 248.356 2328.41 253.36C2319.98 258.365 2313.39 265.213 2308.65 273.906C2303.91 282.334 2301.54 292.212 2301.54 303.538C2301.54 314.865 2303.91 325.006 2308.65 333.961C2313.39 342.653 2319.98 349.502 2328.41 354.507C2336.83 359.511 2346.32 362.014 2356.85 362.014Z" fill="#0F290C"/>
<path d="M2128.07 401.919V205.948H2179.43V235.976C2184.43 225.966 2190.89 218.196 2198.79 212.665C2206.69 206.87 2215.78 203.972 2226.05 203.972H2250.94V249.804H2220.92C2211.43 249.804 2203.53 252.307 2197.21 257.311C2191.15 262.316 2186.67 269.823 2183.78 279.832C2180.88 289.841 2179.43 302.221 2179.43 316.972V401.919H2128.07Z" fill="#0F290C"/>
<path d="M1974.19 406.66C1959.44 406.66 1946.67 404.026 1935.87 398.758C1925.33 393.49 1917.3 386.378 1911.77 377.423C1906.23 368.467 1903.47 358.589 1903.47 347.79C1903.47 327.244 1910.84 311.44 1925.59 300.377C1940.35 289.051 1959.71 283.388 1983.68 283.388C1995 283.388 2004.75 284.178 2012.91 285.759C2021.08 287.339 2027.79 289.051 2033.06 290.895V281.412C2033.06 267.716 2029.11 257.706 2021.21 251.385C2013.57 245.063 2003.56 241.902 1991.18 241.902C1982.49 241.902 1974.72 243.746 1967.87 247.434C1961.02 250.858 1956.68 257.048 1954.83 266.003H1906.23C1907.82 252.043 1912.56 240.322 1920.46 230.839C1928.36 221.093 1938.37 213.718 1950.49 208.714C1962.87 203.709 1976.43 201.207 1991.18 201.207C2020.42 201.207 2043.2 208.187 2059.53 222.147C2076.13 236.107 2084.43 255.862 2084.43 281.412V325.664C2084.43 335.673 2084.95 343.049 2086.01 347.79C2087.32 352.531 2089.3 355.56 2091.93 356.877C2094.57 358.194 2098.12 358.853 2102.6 358.853H2104.18V401.919H2093.12C2079.16 401.919 2067.57 400.075 2058.35 396.387C2049.13 392.7 2042.41 385.456 2038.2 374.657C2031.61 383.876 2022.92 391.515 2012.12 397.573C2001.32 403.631 1988.68 406.66 1974.19 406.66ZM1985.65 367.545C1994.08 367.545 2001.19 365.701 2006.99 362.014C2013.04 358.062 2018.05 352.794 2022 346.209C2025.95 339.361 2028.72 331.986 2030.3 324.084C2024.77 322.503 2018.31 321.054 2010.94 319.737C2003.83 318.157 1996.58 317.367 1989.21 317.367C1978.93 317.367 1970.64 319.737 1964.32 324.479C1958.26 328.957 1955.23 335.278 1955.23 343.444C1955.23 350.556 1957.86 356.35 1963.13 360.828C1968.66 365.306 1976.17 367.545 1985.65 367.545Z" fill="#0F290C"/>
<path d="M1782.8 406.66C1763.05 406.66 1745.27 402.314 1729.46 393.622C1713.66 384.929 1701.15 372.813 1691.93 357.272C1682.71 341.732 1678.1 323.952 1678.1 303.933C1678.1 283.651 1682.71 265.872 1691.93 250.594C1701.15 235.054 1713.66 222.937 1729.46 214.245C1745.53 205.553 1763.31 201.207 1782.8 201.207C1802.56 201.207 1820.34 205.553 1836.14 214.245C1851.95 222.937 1864.46 235.054 1873.68 250.594C1882.89 265.872 1887.5 283.651 1887.5 303.933C1887.5 323.952 1882.89 341.732 1873.68 357.272C1864.46 372.813 1851.95 384.929 1836.14 393.622C1820.34 402.314 1802.56 406.66 1782.8 406.66ZM1782.8 362.409C1792.28 362.409 1800.98 360.301 1808.88 356.087C1816.78 351.609 1822.97 345.024 1827.45 336.332C1832.19 327.64 1834.56 316.84 1834.56 303.933C1834.56 291.027 1832.19 280.227 1827.45 271.535C1822.71 262.843 1816.39 256.389 1808.48 252.175C1800.85 247.697 1792.42 245.458 1783.2 245.458C1773.71 245.458 1765.02 247.697 1757.12 252.175C1749.22 256.653 1742.9 263.238 1738.16 271.93C1733.41 280.359 1731.04 291.027 1731.04 303.933C1731.04 316.84 1733.28 327.64 1737.76 336.332C1742.5 345.024 1748.82 351.609 1756.73 356.087C1764.63 360.301 1773.32 362.409 1782.8 362.409Z" fill="#0F290C"/>
<path d="M1566.46 406.66C1551.71 406.66 1538.8 403.894 1527.74 398.363C1516.94 392.832 1508.12 385.193 1501.27 375.447V401.919H1449.9V117.445H1501.27V234C1507.59 225.308 1515.89 217.669 1526.16 211.084C1536.69 204.499 1550.13 201.207 1566.46 201.207C1584.9 201.207 1601.36 205.684 1615.85 214.64C1630.33 223.596 1641.79 235.844 1650.22 251.385C1658.65 266.925 1662.86 284.573 1662.86 304.328C1662.86 323.82 1658.65 341.336 1650.22 356.877C1641.79 372.418 1630.33 384.666 1615.85 393.622C1601.36 402.314 1584.9 406.66 1566.46 406.66ZM1555 362.014C1565.8 362.014 1575.41 359.511 1583.84 354.507C1592.27 349.502 1598.86 342.653 1603.6 333.961C1608.34 325.269 1610.71 315.391 1610.71 304.328C1610.71 293.002 1608.34 282.993 1603.6 274.301C1598.86 265.345 1592.27 258.365 1583.84 253.36C1575.41 248.356 1565.8 245.853 1555 245.853C1544.2 245.853 1534.59 248.356 1526.16 253.36C1517.99 258.365 1511.54 265.213 1506.8 273.906C1502.32 282.598 1500.08 292.607 1500.08 303.933C1500.08 315.26 1502.32 325.269 1506.8 333.961C1511.54 342.653 1517.99 349.502 1526.16 354.507C1534.59 359.511 1544.2 362.014 1555 362.014Z" fill="#0F290C"/>
<path d="M1390.85 401.919C1377.68 401.919 1366.48 400.47 1357.26 397.573C1348.31 394.412 1341.59 388.485 1337.11 379.793C1332.64 370.837 1330.4 358.062 1330.4 341.468V249.014H1296.81V205.948H1330.4V153.399H1381.76V205.948H1431.15V249.014H1381.76V335.146C1381.76 341.732 1382.42 346.736 1383.74 350.16C1385.05 353.321 1387.56 355.428 1391.24 356.482C1394.93 357.536 1399.94 358.062 1406.26 358.062H1429.96V401.919H1390.85Z" fill="#0F290C"/>
<path d="M1195.28 401.919V180.661C1195.28 162.486 1197.38 148.921 1201.6 139.966C1205.81 130.747 1212.66 124.688 1222.14 121.791C1231.89 118.893 1244.67 117.445 1260.47 117.445H1284.57V161.301H1270.35C1260.86 161.301 1254.54 162.75 1251.38 165.647C1248.22 168.545 1246.64 174.603 1246.64 183.822V401.919H1195.28ZM1168.41 249.014V205.948H1284.57V249.014H1168.41Z" fill="#0F290C"/>
<path d="M1031.04 406.66C1016.29 406.66 1003.51 404.026 992.714 398.758C982.177 393.49 974.144 386.378 968.612 377.423C963.081 368.467 960.315 358.589 960.315 347.79C960.315 327.244 967.69 311.44 982.441 300.377C997.191 289.051 1016.55 283.388 1040.52 283.388C1051.85 283.388 1061.59 284.178 1069.76 285.759C1077.92 287.339 1084.64 289.051 1089.91 290.895V281.412C1089.91 267.716 1085.96 257.706 1078.06 251.385C1070.42 245.063 1060.41 241.902 1048.03 241.902C1039.34 241.902 1031.57 243.746 1024.72 247.434C1017.87 250.858 1013.52 257.048 1011.68 266.003H963.081C964.661 252.043 969.402 240.322 977.304 230.839C985.207 221.093 995.216 213.718 1007.33 208.714C1019.71 203.709 1033.28 201.207 1048.03 201.207C1077.27 201.207 1100.05 208.187 1116.38 222.147C1132.98 236.107 1141.27 255.862 1141.27 281.412V325.664C1141.27 335.673 1141.8 343.049 1142.85 347.79C1144.17 352.531 1146.15 355.56 1148.78 356.877C1151.41 358.194 1154.97 358.853 1159.45 358.853H1161.03V401.919H1149.96C1136 401.919 1124.41 400.075 1115.2 396.387C1105.98 392.7 1099.26 385.456 1095.05 374.657C1088.46 383.876 1079.77 391.515 1068.97 397.573C1058.17 403.631 1045.53 406.66 1031.04 406.66ZM1042.5 367.545C1050.93 367.545 1058.04 365.701 1063.83 362.014C1069.89 358.062 1074.89 352.794 1078.85 346.209C1082.8 339.361 1085.56 331.986 1087.14 324.084C1081.61 322.503 1075.16 321.054 1067.78 319.737C1060.67 318.157 1053.43 317.367 1046.05 317.367C1035.78 317.367 1027.48 319.737 1021.16 324.479C1015.1 328.957 1012.07 335.278 1012.07 343.444C1012.07 350.556 1014.71 356.35 1019.98 360.828C1025.51 365.306 1033.01 367.545 1042.5 367.545Z" fill="#0F290C"/>
<path d="M824.242 401.919V205.948H875.606V235.976C880.61 225.966 887.064 218.196 894.966 212.665C902.868 206.87 911.955 203.972 922.228 203.972H947.119V249.804H917.091C907.609 249.804 899.707 252.307 893.385 257.311C887.327 262.316 882.849 269.823 879.952 279.832C877.054 289.841 875.606 302.221 875.606 316.972V401.919H824.242Z" fill="#0F290C"/>
<path d="M559.693 401.919V125.347H654.913C687.311 125.347 713.915 131.142 734.724 142.731C755.796 154.058 771.336 170.125 781.346 190.934C791.618 211.479 796.755 235.712 796.755 263.633C796.755 291.553 791.618 315.918 781.346 336.727C771.336 357.272 755.796 373.34 734.724 384.929C713.915 396.256 687.311 401.919 654.913 401.919H559.693ZM611.056 358.062H652.147C675.326 358.062 693.501 354.375 706.671 347C720.105 339.361 729.719 328.561 735.514 314.601C741.309 300.377 744.206 283.388 744.206 263.633C744.206 244.141 741.309 227.283 735.514 213.06C729.719 198.836 720.105 187.905 706.671 180.266C693.501 172.627 675.326 168.808 652.147 168.808H611.056V358.062Z" fill="#0F290C"/>
</svg>
