<svg width="2500" height="526" viewBox="0 0 2500 526" fill="none" xmlns="http://www.w3.org/2000/svg">
<path d="M255.678 47.2539C375.784 47.2539 473.15 144.619 473.15 264.725V348.368C473.15 422.279 413.232 482.196 339.321 482.196H182.073C108.161 482.196 48.2446 422.279 48.2446 348.367V181.082C48.2446 107.171 108.162 47.254 182.073 47.2539H255.678ZM181.346 83.6387C127.068 83.6387 83.0659 127.64 83.0659 181.919V347.531C83.066 401.81 127.068 445.811 181.346 445.812H339.211C393.952 445.812 438.328 401.436 438.329 346.695V264.725C438.328 164.714 357.253 83.6387 257.242 83.6387H181.346ZM257.135 146.371C272.669 148.87 284.535 162.336 284.535 178.574C284.534 189.084 279.562 198.431 271.844 204.396L211.579 264.662C198.31 277.931 198.31 299.444 211.579 312.713C224.847 325.982 246.361 325.981 259.629 312.713L326.386 245.955C327.244 244.967 328.172 244.039 329.162 243.18L329.87 242.473L329.959 242.511C334.788 238.62 340.96 236.287 347.685 236.287C362.099 236.287 373.969 247.009 375.529 260.798C375.571 262.102 375.596 263.411 375.596 264.725V346.695C375.596 366.79 359.306 383.079 339.211 383.079H181.346C161.714 383.079 145.797 367.164 145.797 347.531V181.919C145.797 162.286 161.714 146.371 181.346 146.371H257.135Z" fill="#01D924"/>
<path d="M2366.79 406.179C2348.35 406.179 2331.76 401.701 2317.01 392.746C2302.52 383.79 2291.06 371.542 2282.63 356.001C2274.2 340.197 2269.99 322.549 2269.99 303.057C2269.99 283.302 2274.2 265.786 2282.63 250.509C2291.06 234.968 2302.52 222.851 2317.01 214.159C2331.76 205.204 2348.35 200.726 2366.79 200.726C2381.54 200.726 2394.32 203.491 2405.12 209.023C2416.18 214.554 2425 222.193 2431.59 231.939V116.964H2482.95V401.438H2431.59V373.386C2425.53 382.078 2417.23 389.717 2406.7 396.302C2396.42 402.887 2383.12 406.179 2366.79 406.179ZM2377.85 361.533C2388.65 361.533 2398.14 359.03 2406.3 354.026C2414.73 349.021 2421.18 342.173 2425.66 333.48C2430.4 324.525 2432.77 314.515 2432.77 303.453C2432.77 292.126 2430.4 282.117 2425.66 273.425C2421.18 264.732 2414.73 257.884 2406.3 252.879C2398.14 247.875 2388.65 245.372 2377.85 245.372C2367.32 245.372 2357.83 247.875 2349.41 252.879C2340.98 257.884 2334.39 264.732 2329.65 273.425C2324.91 281.854 2322.54 291.731 2322.54 303.057C2322.54 314.384 2324.91 324.525 2329.65 333.48C2334.39 342.173 2340.98 349.021 2349.41 354.026C2357.83 359.03 2367.32 361.533 2377.85 361.533Z" fill="#B7DDB2"/>
<path d="M2149.07 401.438V205.467H2200.43V235.495C2205.43 225.485 2211.89 217.715 2219.79 212.184C2227.69 206.389 2236.78 203.491 2247.05 203.491H2271.94V249.323H2241.92C2232.43 249.323 2224.53 251.826 2218.21 256.83C2212.15 261.835 2207.67 269.342 2204.78 279.351C2201.88 289.361 2200.43 301.74 2200.43 316.491V401.438H2149.07Z" fill="#B7DDB2"/>
<path d="M1995.19 406.179C1980.44 406.179 1967.67 403.545 1956.87 398.277C1946.33 393.009 1938.3 385.897 1932.77 376.942C1927.23 367.986 1924.47 358.108 1924.47 347.309C1924.47 326.764 1931.84 310.959 1946.59 299.897C1961.35 288.57 1980.71 282.907 2004.68 282.907C2016 282.907 2025.75 283.697 2033.91 285.278C2042.08 286.858 2048.79 288.57 2054.06 290.414V280.932C2054.06 267.235 2050.11 257.225 2042.21 250.904C2034.57 244.582 2024.56 241.421 2012.18 241.421C2003.49 241.421 1995.72 243.265 1988.87 246.953C1982.02 250.377 1977.68 256.567 1975.83 265.523H1927.23C1928.82 251.562 1933.56 239.841 1941.46 230.358C1949.36 220.613 1959.37 213.237 1971.49 208.233C1983.87 203.228 1997.43 200.726 2012.18 200.726C2041.42 200.726 2064.2 207.706 2080.53 221.666C2097.13 235.626 2105.43 255.382 2105.43 280.932V325.183C2105.43 335.192 2105.95 342.568 2107.01 347.309C2108.32 352.05 2110.3 355.079 2112.93 356.396C2115.57 357.713 2119.12 358.372 2123.6 358.372H2125.18V401.438H2114.12C2100.16 401.438 2088.57 399.594 2079.35 395.907C2070.13 392.219 2063.41 384.975 2059.2 374.176C2052.61 383.395 2043.92 391.034 2033.12 397.092C2022.32 403.15 2009.68 406.179 1995.19 406.179ZM2006.65 367.064C2015.08 367.064 2022.19 365.22 2027.99 361.533C2034.04 357.582 2039.05 352.314 2043 345.729C2046.95 338.88 2049.72 331.505 2051.3 323.603C2045.77 322.022 2039.31 320.574 2031.94 319.257C2024.83 317.676 2017.58 316.886 2010.21 316.886C1999.93 316.886 1991.64 319.257 1985.32 323.998C1979.26 328.476 1976.23 334.797 1976.23 342.963C1976.23 350.075 1978.86 355.87 1984.13 360.347C1989.66 364.825 1997.17 367.064 2006.65 367.064Z" fill="#B7DDB2"/>
<path d="M1803.8 406.179C1784.05 406.179 1766.27 401.833 1750.46 393.141C1734.66 384.449 1722.15 372.332 1712.93 356.791C1703.71 341.251 1699.1 323.471 1699.1 303.453C1699.1 283.171 1703.71 265.391 1712.93 250.114C1722.15 234.573 1734.66 222.456 1750.46 213.764C1766.53 205.072 1784.31 200.726 1803.8 200.726C1823.56 200.726 1841.34 205.072 1857.14 213.764C1872.95 222.456 1885.46 234.573 1894.68 250.114C1903.89 265.391 1908.5 283.171 1908.5 303.453C1908.5 323.471 1903.89 341.251 1894.68 356.791C1885.46 372.332 1872.95 384.449 1857.14 393.141C1841.34 401.833 1823.56 406.179 1803.8 406.179ZM1803.8 361.928C1813.28 361.928 1821.98 359.821 1829.88 355.606C1837.78 351.128 1843.97 344.543 1848.45 335.851C1853.19 327.159 1855.56 316.359 1855.56 303.453C1855.56 290.546 1853.19 279.746 1848.45 271.054C1843.71 262.362 1837.39 255.908 1829.48 251.694C1821.85 247.216 1813.42 244.977 1804.2 244.977C1794.71 244.977 1786.02 247.216 1778.12 251.694C1770.22 256.172 1763.9 262.757 1759.16 271.449C1754.41 279.878 1752.04 290.546 1752.04 303.453C1752.04 316.359 1754.28 327.159 1758.76 335.851C1763.5 344.543 1769.82 351.128 1777.73 355.606C1785.63 359.821 1794.32 361.928 1803.8 361.928Z" fill="#B7DDB2"/>
<path d="M1587.46 406.179C1572.71 406.179 1559.8 403.414 1548.74 397.882C1537.94 392.351 1529.12 384.712 1522.27 374.966V401.438H1470.9V116.964H1522.27V233.519C1528.59 224.827 1536.89 217.188 1547.16 210.603C1557.69 204.018 1571.13 200.726 1587.46 200.726C1605.9 200.726 1622.36 205.204 1636.85 214.159C1651.33 223.115 1662.79 235.363 1671.22 250.904C1679.65 266.445 1683.86 284.092 1683.86 303.848C1683.86 323.339 1679.65 340.856 1671.22 356.396C1662.79 371.937 1651.33 384.185 1636.85 393.141C1622.36 401.833 1605.9 406.179 1587.46 406.179ZM1576 361.533C1586.8 361.533 1596.41 359.03 1604.84 354.026C1613.27 349.021 1619.86 342.173 1624.6 333.48C1629.34 324.788 1631.71 314.911 1631.71 303.848C1631.71 292.521 1629.34 282.512 1624.6 273.82C1619.86 264.864 1613.27 257.884 1604.84 252.879C1596.41 247.875 1586.8 245.372 1576 245.372C1565.2 245.372 1555.59 247.875 1547.16 252.879C1538.99 257.884 1532.54 264.732 1527.8 273.425C1523.32 282.117 1521.08 292.126 1521.08 303.453C1521.08 314.779 1523.32 324.788 1527.8 333.48C1532.54 342.173 1538.99 349.021 1547.16 354.026C1555.59 359.03 1565.2 361.533 1576 361.533Z" fill="#B7DDB2"/>
<path d="M1411.85 401.438C1398.68 401.438 1387.48 399.989 1378.26 397.092C1369.31 393.931 1362.59 388.005 1358.11 379.312C1353.64 370.357 1351.4 357.582 1351.4 340.987V248.533H1317.81V205.467H1351.4V152.918H1402.76V205.467H1452.15V248.533H1402.76V334.666C1402.76 341.251 1403.42 346.255 1404.74 349.68C1406.05 352.84 1408.56 354.948 1412.24 356.001C1415.93 357.055 1420.94 357.582 1427.26 357.582H1450.96V401.438H1411.85Z" fill="#B7DDB2"/>
<path d="M1216.28 401.438V180.18C1216.28 162.006 1218.38 148.44 1222.6 139.485C1226.81 130.266 1233.66 124.207 1243.14 121.31C1252.89 118.413 1265.67 116.964 1281.47 116.964H1305.57V160.82H1291.35C1281.86 160.82 1275.54 162.269 1272.38 165.166C1269.22 168.064 1267.64 174.122 1267.64 183.341V401.438H1216.28ZM1189.41 248.533V205.467H1305.57V248.533H1189.41Z" fill="#B7DDB2"/>
<path d="M1052.04 406.179C1037.29 406.179 1024.51 403.545 1013.71 398.277C1003.18 393.009 995.144 385.897 989.612 376.942C984.081 367.986 981.315 358.108 981.315 347.309C981.315 326.764 988.69 310.959 1003.44 299.897C1018.19 288.57 1037.55 282.907 1061.52 282.907C1072.85 282.907 1082.59 283.697 1090.76 285.278C1098.92 286.858 1105.64 288.57 1110.91 290.414V280.932C1110.91 267.235 1106.96 257.225 1099.06 250.904C1091.42 244.582 1081.41 241.421 1069.03 241.421C1060.34 241.421 1052.57 243.265 1045.72 246.953C1038.87 250.377 1034.52 256.567 1032.68 265.523H984.081C985.661 251.562 990.402 239.841 998.304 230.358C1006.21 220.613 1016.22 213.237 1028.33 208.233C1040.71 203.228 1054.28 200.726 1069.03 200.726C1098.27 200.726 1121.05 207.706 1137.38 221.666C1153.98 235.626 1162.27 255.382 1162.27 280.932V325.183C1162.27 335.192 1162.8 342.568 1163.85 347.309C1165.17 352.05 1167.15 355.079 1169.78 356.396C1172.41 357.713 1175.97 358.372 1180.45 358.372H1182.03V401.438H1170.96C1157 401.438 1145.41 399.594 1136.2 395.907C1126.98 392.219 1120.26 384.975 1116.05 374.176C1109.46 383.395 1100.77 391.034 1089.97 397.092C1079.17 403.15 1066.53 406.179 1052.04 406.179ZM1063.5 367.064C1071.93 367.064 1079.04 365.22 1084.83 361.533C1090.89 357.582 1095.89 352.314 1099.85 345.729C1103.8 338.88 1106.56 331.505 1108.14 323.603C1102.61 322.022 1096.16 320.574 1088.78 319.257C1081.67 317.676 1074.43 316.886 1067.05 316.886C1056.78 316.886 1048.48 319.257 1042.16 323.998C1036.1 328.476 1033.07 334.797 1033.07 342.963C1033.07 350.075 1035.71 355.87 1040.98 360.347C1046.51 364.825 1054.01 367.064 1063.5 367.064Z" fill="#B7DDB2"/>
<path d="M845.242 401.438V205.467H896.606V235.495C901.61 225.485 908.064 217.715 915.966 212.184C923.868 206.389 932.955 203.491 943.228 203.491H968.119V249.323H938.091C928.609 249.323 920.707 251.826 914.385 256.83C908.327 261.835 903.849 269.342 900.952 279.351C898.054 289.361 896.606 301.74 896.606 316.491V401.438H845.242Z" fill="#B7DDB2"/>
<path d="M580.693 401.438V124.866H675.913C708.311 124.866 734.915 130.661 755.724 142.25C776.796 153.577 792.336 169.644 802.346 190.453C812.618 210.998 817.755 235.231 817.755 263.152C817.755 291.073 812.618 315.437 802.346 336.246C792.336 356.791 776.796 372.859 755.724 384.449C734.915 395.775 708.311 401.438 675.913 401.438H580.693ZM632.056 357.582H673.147C696.326 357.582 714.501 353.894 727.671 346.519C741.105 338.88 750.719 328.081 756.514 314.12C762.309 299.897 765.206 282.907 765.206 263.152C765.206 243.66 762.309 226.803 756.514 212.579C750.719 198.355 741.105 187.424 727.671 179.785C714.501 172.147 696.326 168.327 673.147 168.327H632.056V357.582Z" fill="#B7DDB2"/>
</svg>
